<svg width="89" height="30" viewBox="0 0 89 30" fill="none" xmlns="http://www.w3.org/2000/svg">
    <path fill-rule="evenodd" clip-rule="evenodd" d="M24.9314 18.6123C25.4562 18.6123 25.8804 19.0366 25.8804 19.5613C25.8804 20.0861 25.4562 20.5103 24.9314 20.5103C24.4067 20.5103 23.9824 20.0861 23.9824 19.5613C23.9712 19.0366 24.4067 18.6123 24.9314 18.6123Z" fill="#55B1D8" />
    <path d="M87.7789 18.489C87.5221 18.2322 87.176 18.0759 86.7964 18.0759C86.4168 18.0759 86.0595 18.2322 85.8139 18.489C85.5571 18.7458 85.4008 19.0919 85.4008 19.4715C85.4008 19.8511 85.5571 20.2084 85.8027 20.454C86.0595 20.7108 86.4056 20.856 86.7852 20.856C87.1648 20.856 87.5221 20.6997 87.7678 20.454C88.0245 20.1972 88.1809 19.8511 88.1809 19.4715C88.192 19.0919 88.0357 18.7458 87.7789 18.489ZM86.7964 17.8638C87.243 17.8638 87.6449 18.0424 87.9464 18.3327C88.2367 18.623 88.4153 19.0361 88.4153 19.4827C88.4153 19.9293 88.2367 20.3312 87.9464 20.6327C87.6561 20.923 87.243 21.1016 86.7964 21.1016C86.3498 21.1016 85.9479 20.923 85.6464 20.6327C85.3561 20.3424 85.1775 19.9293 85.1775 19.4827C85.1775 19.0361 85.3561 18.6342 85.6464 18.3327C85.9479 18.0424 86.3498 17.8638 86.7964 17.8638Z" fill="#55B1D8" />
    <path d="M86.2605 18.6454V20.2979H86.5285V19.6391H86.7406L87.1202 20.2979H87.444L87.0309 19.6056C87.31 19.5386 87.4105 19.3265 87.4105 19.1255C87.4105 18.8576 87.2207 18.6343 86.8187 18.6343H86.2605V18.6454ZM87.1425 19.1479C87.1425 19.3153 87.042 19.427 86.8299 19.427H86.5285V18.8687H86.8299C87.0532 18.8687 87.1425 18.9804 87.1425 19.1479Z" fill="#55B1D8" />
    <path d="M43.5545 27.1752H42.0026C41.69 28.1131 40.8637 28.7718 39.5686 28.7718C38.0948 28.7718 36.8667 27.8116 36.755 26.0476H43.6885C43.722 25.7461 43.7331 25.4893 43.7331 25.1767C43.7331 22.7986 42.0919 21.0345 39.5686 21.0345C37.0342 21.0345 35.2813 22.7651 35.2813 25.5005C35.2813 28.2582 37.1012 30 39.5686 30C41.7234 30 43.1191 28.7607 43.5545 27.1752ZM39.5128 22.2515C40.9977 22.2515 42.2705 23.1893 42.2482 24.8752H36.7662C36.9225 23.1893 38.0948 22.2515 39.5128 22.2515ZM26.5949 21.1015L30.0002 29.8995H31.675L35.0803 21.1126H33.5395L30.8488 28.5709L28.1469 21.1126L26.5949 21.1015ZM24.2056 29.8995H25.6459V21.1015H24.2056V29.8995ZM19.9741 25.1767C19.9741 23.9374 21.0236 22.5641 22.3969 22.5641H22.5197L23.2566 21.0792H22.7765C21.4032 21.0792 20.4654 21.5369 19.9741 22.4971V21.0903H18.5338V29.8883H19.9741V25.1767ZM9.97031 29.8995H11.4106V25.0985C11.4106 23.234 12.181 22.3073 13.6547 22.3073C15.1062 22.3073 15.5863 23.2117 15.5863 24.9869V29.8883H17.0154V24.7748C17.0154 22.285 15.9659 21.0568 14.0344 21.0568C12.8174 21.0568 11.98 21.5481 11.4106 22.4636V18.5894L9.97031 17.8413V29.8995V29.8995ZM0 19.0248H3.74026V29.8883H5.18054V19.0248H8.86498V17.8525H0V19.0248Z" fill="#166EAC" />
    <path d="M85.1775 27.4661C85.1328 24.3622 80.0751 25.4899 80.0751 23.4355C80.0751 22.7433 80.7115 22.2297 81.7721 22.2297C82.9221 22.2297 83.592 22.8661 83.659 23.737H85.0993C85.01 22.0399 83.7372 21.0127 81.828 21.0127C79.8964 21.0127 78.646 22.1069 78.646 23.4355C78.646 26.6622 83.7707 25.5457 83.7707 27.4661C83.7707 28.1806 83.1343 28.75 81.9954 28.75C80.7785 28.75 80.0304 28.1136 79.9523 27.2763H78.4673C78.5678 28.8617 79.9857 29.967 82.0178 29.967C83.927 29.967 85.1998 28.8952 85.1775 27.4661ZM71.9581 29.9H73.3984V26.0704L76.8037 29.9H78.7688L74.6712 25.5457L78.8358 21.0909H76.8261L73.4096 25.0656V17.853L71.9693 18.5899V29.9H71.9581ZM58.1582 25.4787C58.1582 23.2904 59.5315 22.2632 61.05 22.2632C62.5349 22.2632 63.9752 23.2904 63.9752 25.4787C63.9752 27.6782 62.5014 28.7054 60.9941 28.7054C59.498 28.7165 58.1582 27.6782 58.1582 25.4787ZM65.449 25.4787C65.449 22.7433 63.5286 21.0127 61.0611 21.0127C58.6048 21.0127 56.6733 22.7433 56.6733 25.4787C56.6733 28.2364 58.5378 29.9782 60.9941 29.9782C63.4728 29.9782 65.449 28.2364 65.449 25.4787ZM46.7588 29.9H48.2437L50.3316 23.0112L52.4194 29.9H53.9044L56.718 21.102H55.1884L53.2233 28.5267L51.1355 21.102H49.6617L47.5069 28.5044L45.5083 21.102H44.0345L46.7588 29.9ZM67.9276 25.1772C67.9276 23.9379 68.9771 22.5646 70.3504 22.5646H70.4732L71.2101 21.0797H70.73C69.3567 21.0797 68.4188 21.5375 67.9276 22.4977V21.0909H66.9562H66.4873V29.8889H66.9562H67.9276V25.1772V25.1772Z" fill="#55B1D8" />
    <path fill-rule="evenodd" clip-rule="evenodd" d="M21.8387 19.561L14.5257 17.5848C14.414 18.2324 14.3247 18.8911 14.28 19.561H21.8387ZM16.3679 11.9242L22.7431 17.3838L17.9868 9.16643C17.3839 10.0373 16.848 10.964 16.3679 11.9242ZM19.0363 7.78198L23.7479 16.7139L22.1402 4.71161C21.0013 5.62714 19.963 6.65432 19.0363 7.78198ZM23.6586 3.59512L24.9314 16.4795L29.1629 0.960187C27.1756 1.57426 25.3333 2.46746 23.6586 3.59512ZM31.6304 0.357279L26.1037 16.7139L38.3294 0.189804C37.3915 0.0669898 36.4425 0 35.4711 0C34.1537 0.011165 32.8697 0.13398 31.6304 0.357279ZM40.9531 0.725722L27.1086 17.3838L48.4895 4.45482C46.2788 2.74658 43.7332 1.46261 40.9531 0.725722ZM50.5327 6.26354L27.7673 18.3887L55.2889 13.5766C54.2283 10.8077 52.587 8.32906 50.5327 6.26354ZM56.0705 15.9771L28.0129 19.561H56.6734C56.5617 18.3329 56.3608 17.1382 56.0705 15.9771ZM14.8606 16.0217L22.0732 18.3887L15.5863 13.7329C15.3072 14.481 15.0616 15.2402 14.8606 16.0217Z" fill="#FFE412" />
</svg>